<svg width="26" height="26" viewBox="0 0 26 26" fill="none" xmlns="http://www.w3.org/2000/svg">
<path d="M25.475 5.27016L13.3476 0.0701051C13.2397 0.0238507 13.1235 0 13.0061 0C12.8887 0 12.7725 0.0238507 12.6646 0.0701051L0.537217 5.27016C0.383221 5.34088 0.25164 5.45258 0.156868 5.59306C0.0620969 5.73353 0.00778622 5.89737 -0.00012207 6.06664V19.9335C-0.000103341 20.103 0.0496668 20.2689 0.143023 20.4105C0.236379 20.552 0.369218 20.6631 0.525084 20.7299L12.6586 25.93C12.766 25.9762 12.8818 26 12.9987 26C13.1157 26 13.2314 25.9762 13.3389 25.93L25.4724 20.7299C25.6287 20.6635 25.7621 20.5526 25.8559 20.411C25.9498 20.2694 25.9999 20.1033 26.0002 19.9335V6.06664C25.9983 5.89748 25.9478 5.73243 25.8546 5.5912C25.7615 5.44997 25.6297 5.33852 25.475 5.27016ZM12.1333 23.8196L1.73323 19.3623V7.38052L12.1333 11.8378V23.8196ZM13 10.3246L3.06705 6.06664L13 1.80952L22.933 6.06664L13 10.3246ZM24.2668 19.3623L13.8667 23.8196V11.8378L24.2668 7.38052V19.3623Z" fill="#1857D8"/>
</svg>
