<svg width="28" height="28" viewBox="0 0 28 28" fill="none" xmlns="http://www.w3.org/2000/svg">
<path d="M10.7797 2.62257H2.94676C2.76822 2.62257 2.62311 2.76768 2.62311 2.94622V25.0532C2.62311 25.2318 2.76822 25.3769 2.94676 25.3769H10.7797C10.9582 25.3769 11.1033 25.2318 11.1033 25.0532V2.94622C11.1033 2.76768 10.9582 2.62257 10.7797 2.62257ZM10.456 24.7296H3.27042V3.26988H10.456V24.7296ZM13.7314 12.6423C13.6165 12.5053 13.6337 12.3014 13.7707 12.1865L18.5484 8.16726C18.6854 8.05183 18.8893 8.06963 19.0042 8.20664C19.1191 8.34365 19.1018 8.54755 18.9648 8.66245L14.1872 12.6817C14.1268 12.7329 14.0523 12.7577 13.979 12.7577C13.8873 12.7577 13.7956 12.7189 13.7314 12.6423ZM13.7314 10.2214C13.6165 10.0844 13.6337 9.88046 13.7707 9.76556L18.5484 5.74635C18.6854 5.63091 18.8893 5.64871 19.0042 5.78573C19.1191 5.92274 19.1018 6.12664 18.9648 6.24154L14.1872 10.2607C14.1268 10.312 14.0523 10.3368 13.979 10.3368C13.8873 10.3363 13.7956 10.2974 13.7314 10.2214ZM4.2268 10.2214C4.11191 10.0844 4.12917 9.88046 4.26618 9.76556L9.04382 5.74635C9.18083 5.63091 9.38473 5.64871 9.49963 5.78573C9.61452 5.92274 9.59726 6.12664 9.46025 6.24154L4.68261 10.2607C4.6222 10.312 4.54776 10.3368 4.4744 10.3368C4.38216 10.3363 4.29046 10.2974 4.2268 10.2214ZM4.2268 12.6423C4.11191 12.5053 4.12917 12.3014 4.26618 12.1865L9.04382 8.16726C9.18083 8.05183 9.38473 8.06963 9.49963 8.20664C9.61452 8.34365 9.59726 8.54755 9.46025 8.66245L4.68261 12.6817C4.6222 12.7329 4.54776 12.7577 4.4744 12.7577C4.42717 12.7579 4.38049 12.7477 4.33768 12.7277C4.29488 12.7078 4.25702 12.6786 4.2268 12.6423ZM24.6395 22.806V23.0703C24.6395 23.4614 24.3212 23.7802 23.9296 23.7802H20.3301L20.699 24.1395C20.8269 24.2641 20.8296 24.469 20.705 24.5974C20.6748 24.6284 20.6388 24.653 20.5989 24.6698C20.5591 24.6866 20.5163 24.6952 20.473 24.6951C20.3886 24.695 20.3076 24.6621 20.247 24.6034L19.3084 23.6885C19.2459 23.6276 19.2108 23.5439 19.2108 23.4566C19.2108 23.3692 19.2459 23.2856 19.3084 23.2246L20.247 22.3098C20.3754 22.1851 20.5798 22.1878 20.7044 22.3157C20.829 22.4435 20.8263 22.6485 20.6985 22.7737L20.3295 23.1329H23.9291C23.9631 23.1329 23.9917 23.1043 23.9917 23.0703V22.806C23.9917 22.6275 24.1368 22.4824 24.3153 22.4824C24.4939 22.4824 24.6395 22.6275 24.6395 22.806ZM24.5419 20.1618C24.6044 20.2227 24.6395 20.3063 24.6395 20.3937C24.6395 20.4811 24.6044 20.5647 24.5419 20.6257L23.6033 21.5405C23.5429 21.5995 23.4617 21.6325 23.3773 21.6322C23.2931 21.6322 23.209 21.5993 23.1453 21.5346C23.0207 21.4068 23.0234 21.2018 23.1512 21.0766L23.5202 20.7174H19.9207C19.8867 20.7174 19.8581 20.746 19.8581 20.78V21.0443C19.8581 21.2228 19.713 21.3679 19.5344 21.3679C19.3559 21.3679 19.2108 21.2228 19.2108 21.0443V20.78C19.2108 20.3889 19.529 20.0701 19.9207 20.0701H23.5202L23.1512 19.7108C23.0234 19.5862 23.0207 19.3812 23.1453 19.2529C23.2699 19.125 23.4749 19.1223 23.6033 19.2469L24.5419 20.1618ZM22.231 16.86V1.32365C22.231 1.1451 22.0859 1 21.9073 1H1.32365C1.1451 1 1 1.1451 1 1.32365V26.6763C1 26.7621 1.03398 26.8446 1.09494 26.9051C1.12491 26.9352 1.16055 26.9591 1.1998 26.9754C1.23906 26.9917 1.28115 27.0001 1.32365 27H21.9251C24.7237 27 27 24.7237 27 21.9251C27 19.2297 24.8871 17.0186 22.231 16.86ZM1.6473 26.3527V1.6473H21.5837V16.8622C21.2487 16.8843 20.9224 16.9393 20.6079 17.024V2.94622C20.6079 2.76768 20.4628 2.62257 20.2842 2.62257H12.4513C12.2728 2.62257 12.1277 2.76768 12.1277 2.94622V25.0532C12.1277 25.2318 12.2728 25.3769 12.4513 25.3769H18.2091C18.5691 25.7642 18.9869 26.0933 19.4476 26.3527H1.6473ZM19.9606 17.2462C18.1352 18.0154 16.8503 19.823 16.8503 21.9251C16.8503 22.9614 17.1626 23.9259 17.6977 24.7296H12.7744V3.26988H19.9606V17.2462ZM21.9251 26.3527C19.4837 26.3527 17.4976 24.3666 17.4976 21.9251C17.4976 19.4837 19.4837 17.4976 21.9251 17.4976C24.3666 17.4976 26.3527 19.4837 26.3527 21.9251C26.3527 24.3666 24.3666 26.3527 21.9251 26.3527Z" fill="#1857D8" stroke="#1857D8" stroke-width="0.4"/>
</svg>
