<svg width="28" height="22" viewBox="0 0 28 22" fill="none" xmlns="http://www.w3.org/2000/svg">
<path d="M6.505 0.846191L12.0085 10.9574H27L21.4951 0.846191H6.505Z" stroke="#1857D8" stroke-width="1.4" stroke-miterlimit="10" stroke-linecap="round" stroke-linejoin="round"/>
<path d="M15.3099 3.25341L18.1935 8.55017M21.507 5.90182H11.9965M6.50497 0.846191L1 10.9574V21.154H12.0085M12.0085 21.154H27V10.9574M12.0085 21.154V10.9574M10.5555 3.25341L13.439 8.55017H22.948L20.0644 3.25341H10.5555Z" stroke="#1857D8" stroke-width="1.2" stroke-miterlimit="10" stroke-linecap="round" stroke-linejoin="round"/>
<path d="M18.6519 18.9775L20.5453 16.0565H18.3748L20.2682 13.1355M6.50503 10.9574C7.30944 10.9574 7.96552 10.3013 7.96552 9.49694C7.96552 8.69257 7.30944 8.03491 6.50503 8.03491C5.69913 8.03491 5.043 8.69252 5.043 9.49694C5.043 10.3014 5.69913 10.9574 6.50503 10.9574ZM4.48279 21.154H8.52579V15.321C8.52579 15.0933 8.33856 14.906 8.10937 14.906H4.89921C4.67002 14.906 4.48279 15.0933 4.48279 15.321V21.154Z" stroke="#1857D8" stroke-width="1.4" stroke-miterlimit="10" stroke-linecap="round" stroke-linejoin="round"/>
</svg>
