<svg width="20" height="26" viewBox="0 0 20 26" fill="none" xmlns="http://www.w3.org/2000/svg">
<path d="M10 19.0946C8.11177 19.0946 6.2659 18.5346 4.69586 17.4856C3.12582 16.4365 1.90212 14.9454 1.17951 13.2009C0.456895 11.4563 0.267827 9.5367 0.636212 7.68471C1.0046 5.83271 1.91389 4.13155 3.2491 2.79634C4.58431 1.46113 6.28547 0.551837 8.13747 0.183453C9.98946 -0.184931 11.9091 0.00413662 13.6536 0.726748C15.3982 1.44936 16.8893 2.67306 17.9383 4.2431C18.9874 5.81315 19.5473 7.65901 19.5473 9.54729C19.5444 12.0785 18.5375 14.5051 16.7477 16.2949C14.9579 18.0848 12.5312 19.0916 10 19.0946ZM10 1.73091C8.45463 1.73091 6.94392 2.18918 5.65895 3.04777C4.37398 3.90636 3.37246 5.1267 2.78106 6.55449C2.18965 7.98227 2.03491 9.55336 2.33641 11.0691C2.63791 12.5848 3.3821 13.9771 4.47487 15.0699C5.56765 16.1626 6.95993 16.9068 8.47566 17.2083C9.99138 17.5098 11.5625 17.3551 12.9903 16.7637C14.418 16.1723 15.6384 15.1708 16.497 13.8858C17.3556 12.6008 17.8138 11.0901 17.8138 9.54469C17.8115 7.47305 16.9876 5.48692 15.5227 4.02205C14.0578 2.55718 12.0717 1.7332 10 1.73091Z" fill="#1857D8"/>
<path d="M15.3392 25.9999C15.1944 26.0003 15.0519 25.9639 14.9249 25.8942L10 23.2072L5.07513 25.8942C4.94314 25.966 4.79474 26.0023 4.6445 25.9994C4.49426 25.9966 4.34734 25.9548 4.21815 25.878C4.08895 25.8013 3.98193 25.6923 3.90759 25.5617C3.83324 25.4311 3.79412 25.2834 3.79407 25.1331V16.3937C3.79407 16.1638 3.88539 15.9433 4.04793 15.7808C4.21048 15.6182 4.43094 15.5269 4.66082 15.5269C4.8907 15.5269 5.11116 15.6182 5.27371 15.7808C5.43626 15.9433 5.52757 16.1638 5.52757 16.3937V23.6744L9.58485 21.4624C9.71219 21.393 9.85495 21.3565 10 21.3565C10.1451 21.3565 10.2878 21.393 10.4152 21.4624L14.4725 23.6744V16.3937C14.4725 16.1638 14.5638 15.9433 14.7263 15.7808C14.8889 15.6182 15.1093 15.5269 15.3392 15.5269C15.5691 15.5269 15.7896 15.6182 15.9521 15.7808C16.1147 15.9433 16.206 16.1638 16.206 16.3937V25.1331C16.206 25.363 16.1147 25.5835 15.9521 25.746C15.7896 25.9086 15.5691 25.9999 15.3392 25.9999ZM12.8014 14.726C12.6791 14.7259 12.5583 14.6999 12.4469 14.6498L10 13.5525L7.55318 14.6498C7.41416 14.7114 7.26137 14.7354 7.11015 14.7194C6.95892 14.7033 6.81458 14.6478 6.69162 14.5583C6.56867 14.4688 6.47142 14.3485 6.40965 14.2095C6.34788 14.0706 6.32377 13.9178 6.33972 13.7665L6.62662 11.0995L4.82724 9.11035C4.72505 8.99726 4.65449 8.85922 4.62267 8.71015C4.59086 8.56108 4.59892 8.40626 4.64604 8.26131C4.69315 8.11635 4.77766 7.98638 4.89104 7.88451C5.00442 7.78264 5.14266 7.71247 5.29182 7.68107L7.91635 7.12982L9.25201 4.80345C9.33408 4.67919 9.44568 4.57721 9.57683 4.50666C9.70797 4.4361 9.85457 4.39917 10.0035 4.39917C10.1524 4.39917 10.299 4.4361 10.4301 4.50666C10.5613 4.57721 10.6729 4.67919 10.755 4.80345L12.0906 7.12982L14.7152 7.68107C14.8643 7.71247 15.0026 7.78264 15.1159 7.88451C15.2293 7.98638 15.3138 8.11635 15.3609 8.26131C15.4081 8.40626 15.4161 8.56108 15.3843 8.71015C15.3525 8.85922 15.2819 8.99726 15.1797 9.11035L13.3804 11.1039L13.6673 13.7709C13.6803 13.8922 13.6676 14.015 13.6299 14.1311C13.5923 14.2472 13.5305 14.3541 13.4487 14.4447C13.3668 14.5352 13.2668 14.6075 13.1551 14.6567C13.0434 14.706 12.9226 14.7311 12.8005 14.7304L12.8014 14.726ZM10 11.7357C10.1222 11.7356 10.243 11.7613 10.3545 11.8112L11.7786 12.4499L11.6113 10.8985C11.5983 10.777 11.6111 10.6541 11.6488 10.5378C11.6866 10.4216 11.7486 10.3147 11.8306 10.2241L12.8776 9.06701L11.3513 8.74631C11.2315 8.72132 11.1184 8.67125 11.0193 8.5994C10.9203 8.52754 10.8376 8.43552 10.7766 8.3294L10 6.9764L9.21994 8.3294C9.15901 8.43552 9.0763 8.52754 8.97726 8.5994C8.87821 8.67125 8.76507 8.72132 8.64529 8.74631L7.11893 9.06701L8.16944 10.225C8.25146 10.3156 8.3134 10.4225 8.3512 10.5387C8.38899 10.6549 8.40178 10.7778 8.38873 10.8993L8.22144 12.4508L9.64552 11.812C9.75699 11.7619 9.8778 11.7359 10 11.7357Z" fill="#1857D8"/>
</svg>
