<svg xmlns="http://www.w3.org/2000/svg" width="24" height="25" viewBox="0 0 24 25" fill="none">
  <path d="M23.7495 17.8473L18.3439 12.4442C18.1876 12.2879 18.1876 12.0346 18.344 11.8783L23.2473 6.97775C23.7293 6.49524 24 5.84091 24 5.15865C24 4.47639 23.7293 3.82206 23.2473 3.33956L20.819 0.909091C20.3369 0.426734 19.6832 0.155762 19.0015 0.155762C18.3198 0.155762 17.6661 0.426734 17.184 0.909091L12.288 5.81646C12.1318 5.97303 11.8782 5.97312 11.7219 5.81666L6.32394 0.413997C6.2445 0.333708 6.14994 0.269974 6.04574 0.226478C5.94154 0.182982 5.82976 0.160587 5.71686 0.160587C5.60396 0.160587 5.49218 0.182982 5.38798 0.226478C5.28377 0.269974 5.18922 0.333708 5.10977 0.413997L0.260601 5.25992C0.180382 5.33944 0.116704 5.43407 0.0732459 5.53837C0.0297881 5.64266 0.00741268 5.75454 0.00741268 5.86754C0.00741268 5.98054 0.0297881 6.09242 0.0732459 6.19671C0.116704 6.301 0.180382 6.39564 0.260601 6.47515L5.66636 11.8785C5.82258 12.0347 5.82266 12.2879 5.66654 12.4441L2.13432 15.9795C1.52262 16.5924 1.11214 17.3775 0.957622 18.2299L0.0132703 23.1508C-0.0106977 23.2854 -0.00210999 23.4237 0.0383142 23.5542C0.0787384 23.6847 0.149822 23.8036 0.245611 23.901C0.342529 23.9977 0.461056 24.0699 0.591385 24.1116C0.721715 24.1534 0.860101 24.1634 0.995097 24.141L5.91172 23.2184C6.76414 23.0612 7.54845 22.6477 8.16018 22.0331L11.7221 18.5028C11.8785 18.3478 12.1309 18.3484 12.2866 18.5042L17.6861 23.9085C17.8485 24.067 18.0664 24.1558 18.2932 24.1558C18.5201 24.1558 18.7379 24.067 18.9003 23.9085L23.7495 19.0551C23.9092 18.8948 23.9989 18.6776 23.9989 18.4512C23.9989 18.2248 23.9092 18.0076 23.7495 17.8473ZM18.3982 2.09432C18.5605 1.93578 18.7784 1.84704 19.0052 1.84704C19.2321 1.84704 19.4499 1.93578 19.6123 2.09432L22.0332 4.51728C22.1934 4.67886 22.2832 4.89727 22.2832 5.1249C22.2832 5.35253 22.1934 5.57093 22.0332 5.73251L20.4124 7.37383C20.2565 7.53177 20.0017 7.53252 19.8448 7.3755L16.7817 4.30965C16.6267 4.15455 16.6255 3.90361 16.7789 3.747L18.3982 2.09432ZM2.36395 6.12863C2.20815 5.972 2.20882 5.71874 2.36545 5.56294L5.43389 2.51081C5.59027 2.35526 5.84305 2.35565 5.99895 2.51168L6.88002 3.39352C7.03641 3.55005 7.03601 3.8038 6.87914 3.95984L6.23342 4.60213C6.07655 4.75817 6.07616 5.01192 6.23255 5.16845L6.87952 5.81599C7.0361 5.97271 7.29024 5.97231 7.44633 5.81511L8.08707 5.16982C8.24317 5.01262 8.4973 5.01223 8.65388 5.16894L10.5084 7.02509C10.6645 7.18128 10.6645 7.43435 10.5084 7.59053L7.43946 10.6622C7.28298 10.8188 7.02904 10.8185 6.87291 10.6615L2.36395 6.12863ZM6.97599 20.8104C6.61128 21.1785 6.14343 21.427 5.63441 21.523L2.52143 22.1056C2.24496 22.1574 2.00284 21.9152 2.0547 21.6387L2.63647 18.5375C2.72984 18.0287 2.97554 17.5604 3.34099 17.1947L14.9973 5.52813C15.1536 5.37176 15.407 5.37176 15.5633 5.52813L18.6326 8.60013C18.7887 8.75641 18.7886 9.0097 18.6323 9.16583L6.97599 20.8104ZM18.5762 21.7874C18.42 21.9438 18.1665 21.9438 18.0103 21.7874L13.4942 17.2674C13.3381 17.1112 13.3381 16.8581 13.4942 16.7019L16.5638 13.6297C16.72 13.4733 16.9735 13.4733 17.1297 13.6297L18.9851 15.4867C19.1411 15.6429 19.1411 15.896 18.9851 16.0521L18.3359 16.7019C18.1798 16.8581 18.1798 17.1112 18.3359 17.2674L18.9846 17.9167C19.1408 18.0731 19.3943 18.0731 19.5505 17.9167L20.1988 17.2679C20.355 17.1115 20.6085 17.1115 20.7647 17.2679L21.6458 18.1497C21.8018 18.3059 21.8018 18.559 21.6458 18.7152L18.5762 21.7874Z" fill="#E6E7ED"/>
</svg>