<svg xmlns="http://www.w3.org/2000/svg" width="24" height="25" viewBox="0 0 24 25" fill="none">
  <path d="M18.4286 24.1558C16.7743 24.1558 15.4286 22.8101 15.4286 21.1558V9.89894C14.6391 9.39742 13.9892 8.70428 13.5396 7.88405C13.09 7.06382 12.8553 6.14317 12.8572 5.2078C12.8553 4.18118 13.1382 3.17415 13.6745 2.29874C14.2108 1.42333 14.9794 0.713852 15.8949 0.249225C16.0257 0.182749 16.1713 0.150886 16.3179 0.156675C16.4645 0.162463 16.6072 0.205709 16.7323 0.28229C16.8575 0.35887 16.9609 0.466232 17.0328 0.594137C17.1047 0.722042 17.1426 0.866226 17.1429 1.01294V4.71837L18.4286 5.23265L19.7143 4.71837V1.01294C19.7147 0.866226 19.7526 0.722042 19.8244 0.594137C19.8963 0.466232 19.9998 0.35887 20.1249 0.28229C20.25 0.205709 20.3927 0.162463 20.5393 0.156675C20.6859 0.150886 20.8315 0.182749 20.9623 0.249225C21.8778 0.714073 22.6464 1.42372 23.1827 2.29926C23.719 3.1748 24.0019 4.18193 24.0001 5.20865C24.0017 6.14398 23.7669 7.06454 23.3173 7.88473C22.8677 8.70492 22.218 9.3981 21.4286 9.8998V21.1558C21.4286 22.8101 20.0829 24.1558 18.4286 24.1558ZM15.4286 2.7838C14.8826 3.45665 14.5715 4.30523 14.5715 5.2078C14.5715 6.6598 15.378 7.97551 16.6766 8.64065C16.817 8.71259 16.9348 8.82187 17.0171 8.95647C17.0994 9.09107 17.1429 9.24576 17.1429 9.40351V21.1558C17.1429 21.8647 17.7198 22.4415 18.4286 22.4415C19.1375 22.4415 19.7143 21.8647 19.7143 21.1558V9.40351C19.7143 9.24576 19.7579 9.09107 19.8401 8.95647C19.9224 8.82187 20.0402 8.71259 20.1806 8.64065C20.8145 8.31919 21.3469 7.82824 21.7185 7.22236C22.0902 6.61649 22.2865 5.91943 22.2858 5.20865C22.2874 4.32612 21.9846 3.47002 21.4286 2.78465V5.29865C21.4286 5.64923 21.2152 5.9638 20.8903 6.09494L18.7475 6.95208C18.5432 7.03441 18.3149 7.03441 18.1106 6.95208L15.9678 6.09494C15.8087 6.03115 15.6724 5.92123 15.5763 5.77933C15.4802 5.63742 15.4288 5.47002 15.4286 5.29865V2.7838Z" fill="#1857D8"/>
  <path d="M12.9206 24.1558H11.0803C10.649 24.1542 10.2339 23.9907 9.91742 23.6976C9.6009 23.4046 9.40594 23.0034 9.37115 22.5735L9.26315 21.172C8.67414 20.9932 8.10423 20.7566 7.56172 20.4658L6.49372 21.3803C6.16529 21.6598 5.7439 21.8059 5.31295 21.7895C4.88199 21.7732 4.47288 21.5956 4.16657 21.292L2.86372 19.9883C2.56012 19.6819 2.38252 19.2727 2.36601 18.8417C2.3495 18.4106 2.4953 17.9891 2.77457 17.6603L3.68914 16.5932C3.39829 16.0507 3.16171 15.4808 2.98286 14.8918L1.58229 14.7846C1.15243 14.75 0.751241 14.5553 0.458195 14.2389C0.165148 13.9225 0.00161864 13.5076 0 13.0763V11.2352C0 10.3446 0.695143 9.59376 1.58314 9.52605L2.98372 9.41891C3.162 8.83005 3.39857 8.2609 3.69 7.71748L2.77457 6.64862C2.49522 6.31985 2.34946 5.89819 2.36612 5.46709C2.38279 5.03599 2.56067 4.62684 2.86457 4.32062L4.16572 3.01862C4.47205 2.71484 4.88125 2.53711 5.31235 2.52061C5.74346 2.5041 6.16505 2.65001 6.49372 2.92948L7.56172 3.84405C8.10423 3.55319 8.67414 3.31662 9.26315 3.13776L9.37115 1.73633C9.40634 1.30686 9.60135 0.906201 9.91765 0.61355C10.2339 0.320898 10.6485 0.157541 11.0794 0.155762H12C12.2273 0.155762 12.4454 0.246068 12.6061 0.406813C12.7668 0.567558 12.8571 0.785576 12.8571 1.0129C12.8571 1.24023 12.7668 1.45825 12.6061 1.619C12.4454 1.77974 12.2273 1.87005 12 1.87005H11.0794L10.9251 3.87662C10.911 4.05852 10.8393 4.23116 10.7202 4.36944C10.6012 4.50773 10.4412 4.60443 10.2634 4.64548C9.43346 4.83667 8.64136 5.1655 7.92 5.61833C7.76537 5.71576 7.58353 5.76094 7.40127 5.74721C7.21902 5.73347 7.046 5.66155 6.90772 5.54205L5.37772 4.23148L4.07657 5.53433L5.38715 7.06348C5.63143 7.34805 5.66143 7.75862 5.46257 8.07576C5.0104 8.79746 4.68162 9.58944 4.48972 10.4192C4.44874 10.5971 4.35195 10.7573 4.21348 10.8764C4.075 10.9954 3.90209 11.0671 3.72 11.0809L1.71429 11.2352V13.0763L3.72 13.2306C3.90205 13.2446 4.07489 13.3163 4.21334 13.4353C4.35179 13.5543 4.44862 13.7144 4.48972 13.8923C4.68091 14.7223 5.00974 15.5144 5.46257 16.2358C5.55946 16.3905 5.60439 16.5722 5.59083 16.7543C5.57726 16.9364 5.5059 17.1094 5.38715 17.248L4.07657 18.7772L5.37857 20.08L6.90772 18.7695C7.04619 18.6503 7.21917 18.5787 7.40132 18.5649C7.58347 18.5512 7.76524 18.5962 7.92 18.6932C8.64686 19.1475 9.43543 19.4749 10.2634 19.666C10.4412 19.7071 10.6012 19.8038 10.7202 19.9421C10.8393 20.0804 10.911 20.253 10.9251 20.4349L11.0794 22.4415H12.9197C12.9275 22.3286 12.9576 22.2184 13.0082 22.1172C13.0589 22.0161 13.129 21.9259 13.2146 21.852C13.3003 21.778 13.3997 21.7218 13.5071 21.6865C13.6146 21.6511 13.728 21.6374 13.8408 21.6461C13.9536 21.6549 14.0636 21.6858 14.1643 21.7372C14.2651 21.7886 14.3547 21.8595 14.428 21.9457C14.5012 22.0319 14.5567 22.1318 14.5912 22.2395C14.6257 22.3472 14.6385 22.4608 14.6289 22.5735C14.5941 23.0033 14.3992 23.4043 14.0829 23.6973C13.7666 23.9904 13.3518 24.1539 12.9206 24.1558Z" fill="#1857D8"/>
  <path d="M6.00003 12.1558C5.99542 10.7363 6.4961 9.36153 7.41245 8.27745C8.32881 7.19337 9.60104 6.47076 11.0015 6.23894C11.1125 6.21981 11.2262 6.22288 11.3361 6.24797C11.4459 6.27306 11.5497 6.31966 11.6415 6.3851C11.7332 6.45053 11.8111 6.53349 11.8705 6.62919C11.93 6.72489 11.97 6.83143 11.988 6.94265C12.0255 7.16679 11.9724 7.39662 11.8404 7.58162C11.7085 7.76662 11.5084 7.89165 11.2843 7.92922C10.2845 8.09543 9.37633 8.61187 8.7223 9.38619C8.06826 10.1605 7.71097 11.1422 7.71432 12.1558C7.71432 15.1155 10.6543 17.1795 13.4289 16.1981C13.6409 16.1307 13.8708 16.1483 14.07 16.2473C14.2692 16.3463 14.4222 16.5188 14.4965 16.7285C14.5708 16.9381 14.5608 17.1685 14.4684 17.3709C14.376 17.5732 14.2086 17.7317 14.0015 17.8129C10.0989 19.1938 6.00003 16.2838 6.00003 12.1558Z" fill="#1857D8"/>
</svg>