<svg xmlns="http://www.w3.org/2000/svg" width="25" height="25" viewBox="0 0 25 25" fill="none">
  <path d="M9.38077 24.1547C9.12632 24.156 8.87327 24.1169 8.63106 24.0389C7.67109 23.7271 7.13598 22.899 6.66348 22.1686C6.41384 21.7831 6.15593 21.3839 5.91417 21.2083C5.6661 21.0275 5.20187 20.9031 4.75299 20.7826C3.91824 20.559 2.97205 20.3054 2.38575 19.499C1.80418 18.7004 1.85339 17.7271 1.8971 16.8679C1.92073 16.3993 1.94514 15.9146 1.84749 15.6138C1.75889 15.3405 1.46397 14.9783 1.17929 14.6282C0.654024 13.9825 0 13.1792 0 12.1551C0 11.1309 0.65363 10.3277 1.1789 9.68232C1.46397 9.33227 1.75889 8.97002 1.84749 8.69675C1.94514 8.39553 1.92073 7.91122 1.8971 7.44226C1.85379 6.58348 1.80457 5.60973 2.38575 4.81081C2.97205 4.00519 3.91824 3.75161 4.7526 3.52757C5.20187 3.40708 5.6661 3.28265 5.91456 3.10192C6.15633 2.92591 6.41463 2.52704 6.66387 2.14156C7.13638 1.41114 7.67149 0.583081 8.63106 0.271623C9.55678 -0.0288107 10.4597 0.315329 11.2562 0.6197C11.7015 0.789802 12.1626 0.966203 12.4918 0.966203C12.821 0.966203 13.2821 0.790195 13.7282 0.620094C14.5244 0.316117 15.4265 -0.0280232 16.353 0.272017C17.3129 0.583475 17.848 1.41154 18.3201 2.14234C18.5698 2.52822 18.8277 2.92709 19.0691 3.10271C19.3179 3.28344 19.7821 3.40787 20.231 3.52835C21.0654 3.75201 22.0112 4.00558 22.5983 4.81159C23.1798 5.61091 23.1306 6.58388 23.0865 7.44304C23.0629 7.91161 23.0385 8.39632 23.1361 8.69715C23.2251 8.97041 23.5196 9.33267 23.8043 9.68271C24.33 10.3281 24.9836 11.1313 24.9836 12.1559C24.9836 13.1808 24.3296 13.9841 23.8043 14.629C23.5193 14.9795 23.2247 15.3413 23.1361 15.6146C23.0385 15.9154 23.0629 16.3997 23.0865 16.8687C23.1302 17.7279 23.1794 18.7008 22.5983 19.5002C22.0116 20.3062 21.0654 20.5593 20.231 20.7834C19.7818 20.9039 19.3175 21.0283 19.0691 21.209C18.8277 21.385 18.5694 21.7839 18.3201 22.1694C17.848 22.8998 17.3121 23.7279 16.353 24.0397C15.4276 24.3406 14.5244 23.996 13.7282 23.6917C13.2825 23.5212 12.8214 23.3451 12.4918 23.3451C12.1626 23.3451 11.7015 23.5212 11.2558 23.6917C10.6766 23.9122 10.0407 24.1547 9.38077 24.1547ZM9.38431 2.12462C9.32919 2.12462 9.28036 2.13092 9.23863 2.14431C8.94449 2.2396 8.61098 2.75542 8.31685 3.21059C7.96956 3.74767 7.61085 4.30287 7.07259 4.69426C6.52882 5.08998 5.85589 5.27032 5.26211 5.42979C4.74275 5.56917 4.15409 5.72668 3.9773 5.97002C3.80523 6.20627 3.83594 6.81028 3.86272 7.34343C3.89382 7.96004 3.92926 8.65895 3.71939 9.3051C3.517 9.92802 3.10435 10.4352 2.70508 10.9254C2.34283 11.3707 1.96798 11.831 1.96798 12.1555C1.96798 12.4799 2.34283 12.9406 2.70548 13.386C3.10435 13.8762 3.5174 14.3829 3.71939 15.0063C3.92926 15.652 3.89382 16.3509 3.86272 16.9675C3.83555 17.5007 3.80523 18.1043 3.9769 18.3402C4.15409 18.5835 4.74275 18.7418 5.26251 18.8808C5.85589 19.0399 6.52842 19.2202 7.07259 19.6159C7.61046 20.0073 7.96956 20.5625 8.31646 21.0996C8.61098 21.5548 8.94449 22.071 9.23863 22.1663C9.50244 22.2521 10.0608 22.0395 10.553 21.8516C11.1369 21.6284 11.7992 21.3756 12.4914 21.3756C13.1836 21.3756 13.8459 21.6288 14.4303 21.8516C14.9224 22.0395 15.478 22.2505 15.7446 22.1663C16.0387 22.071 16.3722 21.5548 16.6664 21.0996C17.0137 20.5629 17.3728 20.0077 17.9102 19.6159C18.4548 19.2202 19.1273 19.0399 19.7211 18.8808C20.2405 18.7414 20.8291 18.5835 21.0063 18.3406C21.1784 18.1047 21.1473 17.5007 21.1205 16.9675C21.0894 16.3509 21.054 15.6516 21.2634 15.0059C21.4662 14.3829 21.8789 13.8762 22.2774 13.386C22.64 12.9406 23.0149 12.4799 23.0149 12.1555C23.0149 11.831 22.64 11.3703 22.2778 10.925C21.8785 10.4348 21.4658 9.92763 21.2634 9.30471C21.054 8.65856 21.0894 7.95965 21.1205 7.34264C21.1473 6.80989 21.178 6.20587 21.0063 5.96962C20.8295 5.72668 20.2409 5.56878 19.7211 5.42979C19.1277 5.27071 18.4548 5.09037 17.9106 4.69426C17.3728 4.30287 17.0141 3.74767 16.6668 3.21059C16.3726 2.75542 16.0387 2.2396 15.7446 2.14431C15.4792 2.05847 14.9221 2.2711 14.4303 2.45892C13.8463 2.68218 13.1844 2.93497 12.4918 2.93497C11.7992 2.93497 11.1373 2.68218 10.5534 2.45931C10.1387 2.30063 9.67805 2.12462 9.38431 2.12462Z" fill="#1857D8"/>
  <path d="M12.4919 19.0741C8.6768 19.0741 5.57324 15.9701 5.57324 12.1554C5.57324 8.34038 8.6768 5.23682 12.4919 5.23682C16.3066 5.23682 19.4105 8.34038 19.4105 12.1554C19.4105 15.9701 16.3066 19.0741 12.4919 19.0741ZM12.4919 7.20558C9.76238 7.20558 7.54201 9.42635 7.54201 12.1554C7.54201 14.8846 9.76238 17.1053 12.4919 17.1053C15.2214 17.1053 17.4417 14.8849 17.4417 12.1554C17.4417 9.42595 15.2214 7.20558 12.4919 7.20558Z" fill="#1857D8"/>
  <path d="M11.6552 14.5687C11.4032 14.5687 11.1515 14.4726 10.959 14.2805L9.7742 13.096C9.58956 12.9114 9.48584 12.661 9.48584 12.3999C9.48584 12.1388 9.58956 11.8884 9.7742 11.7037C9.95883 11.5191 10.2092 11.4154 10.4704 11.4154C10.7315 11.4154 10.9819 11.5191 11.1665 11.7037L11.6552 12.1924L13.8173 10.0303C13.9085 9.93824 14.0171 9.86512 14.1367 9.81513C14.2563 9.76515 14.3846 9.73928 14.5142 9.73902C14.6439 9.73875 14.7723 9.76409 14.8921 9.81359C15.0119 9.86308 15.1208 9.93575 15.2124 10.0274C15.3041 10.1191 15.3767 10.228 15.4262 10.3478C15.4756 10.4676 15.5009 10.5961 15.5006 10.7257C15.5003 10.8553 15.4744 10.9836 15.4244 11.1032C15.3744 11.2228 15.3012 11.3313 15.2092 11.4226L12.3509 14.2805C12.2597 14.372 12.1512 14.4446 12.0318 14.4941C11.9124 14.5435 11.7844 14.5689 11.6552 14.5687Z" fill="#1857D8"/>
</svg>