<svg xmlns="http://www.w3.org/2000/svg" width="30" height="25" viewBox="0 0 30 25" fill="none">
  <path d="M14.5258 18.7744C18.59 18.7744 21.8965 15.4686 21.8965 11.4052C21.8943 9.45106 21.117 7.57756 19.7352 6.19576C18.3534 4.81394 16.4799 4.03667 14.5258 4.03445C10.4624 4.03445 7.15661 7.34098 7.15661 11.4052C7.15977 13.2644 7.86285 15.0543 9.12592 16.4186L8.36367 19.2623C8.31866 19.4301 8.32446 19.6076 8.38033 19.7722C8.43619 19.9368 8.53963 20.0811 8.67753 20.1869C8.81544 20.2927 8.98163 20.3552 9.15507 20.3665C9.32852 20.3779 9.50143 20.3375 9.65192 20.2505L12.6331 18.528C13.2506 18.692 13.8868 18.7748 14.5258 18.7744ZM12.0804 16.818L10.6107 17.6674L10.9544 16.3851C10.9957 16.231 10.9943 16.0685 10.9502 15.9151C10.9062 15.7618 10.8212 15.6233 10.7044 15.5145C10.1371 14.9915 9.68486 14.356 9.37659 13.6485C9.06832 12.9411 8.91073 12.1772 8.91387 11.4055C8.91429 10.2209 9.28967 9.06688 9.98622 8.10873C10.6828 7.15057 11.6647 6.43749 12.7914 6.07166C13.9181 5.70583 15.1317 5.70604 16.2583 6.07225C17.3848 6.43846 18.3665 7.15187 19.0628 8.11026C19.759 9.06866 20.134 10.2228 20.134 11.4074C20.134 12.592 19.7591 13.7462 19.0629 14.7046C18.3667 15.663 17.3849 16.3765 16.2584 16.7427C15.1318 17.109 13.9183 17.1092 12.7916 16.7434C12.6744 16.7053 12.5506 16.6922 12.4281 16.705C12.3056 16.7178 12.1871 16.7563 12.0804 16.8178V16.818ZM29.0416 12.0328C29.0511 11.6732 29.061 11.3014 29.0439 10.9144C28.9975 9.83296 28.5333 8.81173 27.749 8.06572C26.9647 7.31972 25.9216 6.90716 24.8392 6.9149C23.102 2.9405 19.1332 0.155762 14.5258 0.155762C9.91827 0.155762 5.95113 2.94044 4.21389 6.91484C3.13176 6.90716 2.08885 7.31958 1.30465 8.0653C0.520454 8.81102 0.0561304 9.83188 0.00940611 10.913C-0.00781508 11.3015 0.00208418 11.6733 0.011632 12.0329C0.0217655 12.4129 0.0321919 12.8057 0.0126863 13.2472C-0.0338262 14.354 0.360476 15.4341 1.10913 16.2506C1.85779 17.0671 2.89968 17.5534 4.00636 17.6029C4.07189 17.6059 4.13728 17.6074 4.20253 17.6074C4.75413 17.6078 5.30019 17.4974 5.80838 17.2829C6.02071 17.194 6.18955 17.0251 6.27847 16.8128C6.36739 16.6004 6.36925 16.3616 6.28366 16.1479C6.27302 16.1064 6.25678 16.0666 6.23539 16.0295C5.4482 14.6154 5.03506 13.0237 5.03512 11.4052C5.03512 6.17123 9.29262 1.91303 14.5258 1.91303C19.7589 1.91303 24.018 6.17146 24.018 11.4052C24.0242 13.6207 23.2527 15.7681 21.8381 17.4731C20.4235 19.1781 18.4554 20.3327 16.2769 20.7355C16.0474 20.2161 15.6436 19.7932 15.1354 19.5399C14.6272 19.2866 14.0465 19.2188 13.4936 19.3483C12.9407 19.4777 12.4504 19.7963 12.1074 20.2489C11.7645 20.7015 11.5905 21.2596 11.6154 21.8269C11.6403 22.3942 11.8627 22.935 12.244 23.3557C12.6254 23.7765 13.1417 24.0508 13.7038 24.1312C14.2659 24.2116 14.8385 24.0931 15.3225 23.7962C15.8066 23.4993 16.1716 23.0426 16.3547 22.5051C17.9022 22.2491 19.3792 21.6728 20.6913 20.8131C22.0033 19.9534 23.1213 18.8293 23.9739 17.5126C24.2615 17.5755 24.5551 17.6073 24.8496 17.6075C24.9142 17.6075 24.9789 17.606 25.0438 17.603C25.5923 17.5794 26.1308 17.448 26.6285 17.2163C27.1263 16.9845 27.5735 16.657 27.9446 16.2524C28.3157 15.8478 28.6035 15.374 28.7915 14.8582C28.9796 14.3424 29.0641 13.7945 29.0404 13.246C29.021 12.806 29.0314 12.4127 29.0416 12.0328ZM4.0845 15.8474C3.44297 15.819 2.83885 15.5375 2.40464 15.0643C1.97043 14.5912 1.74157 13.9652 1.76825 13.3236C1.79045 12.8211 1.77868 12.3776 1.76825 11.9862C1.75911 11.6421 1.75068 11.3171 1.76503 10.9896C1.78771 10.4678 1.97827 9.96728 2.30834 9.56253C2.63842 9.15777 3.09036 8.87041 3.59692 8.74322C3.04309 11.0203 3.21304 13.4134 4.0831 15.5893L4.08204 15.5898C4.11625 15.6769 4.15157 15.7637 4.188 15.85C4.15376 15.8498 4.11926 15.849 4.0845 15.8474ZM14.0492 22.3985C13.915 22.3985 13.7837 22.3587 13.6721 22.2841C13.5605 22.2096 13.4735 22.1036 13.4221 21.9795C13.3707 21.8555 13.3572 21.719 13.3834 21.5874C13.4095 21.4557 13.4742 21.3347 13.5691 21.2398C13.664 21.1448 13.7849 21.0801 13.9166 21.0539C14.0483 21.0277 14.1847 21.0411 14.3088 21.0924C14.4328 21.1438 14.5389 21.2308 14.6135 21.3424C14.6881 21.454 14.728 21.5852 14.728 21.7194V21.7207C14.7276 21.9005 14.6559 22.0728 14.5286 22.1998C14.4014 22.3269 14.229 22.3983 14.0492 22.3985ZM27.2848 13.3224C27.2985 13.6405 27.2494 13.9582 27.1402 14.2573C27.0311 14.5564 26.864 14.8311 26.6486 15.0656C26.4333 15.3001 26.1738 15.4899 25.885 15.624C25.5963 15.7582 25.2839 15.8341 24.9658 15.8475C24.932 15.8491 24.8984 15.8499 24.8648 15.8501C24.8662 15.8468 24.8665 15.8431 24.8654 15.8397C25.8247 13.6004 26.032 11.1104 25.4562 8.74328C25.963 8.87049 26.4151 9.15802 26.7452 9.56303C27.0753 9.96804 27.2658 10.4689 27.2882 10.9909C27.3026 11.317 27.294 11.642 27.2849 11.9861C27.2745 12.3775 27.2626 12.8211 27.2848 13.3224ZM12.4729 11.3191C12.4757 11.3477 12.4771 11.3765 12.477 11.4052C12.4771 11.4342 12.4757 11.4631 12.4729 11.4919C12.47 11.52 12.4653 11.5487 12.46 11.5769C12.4548 11.605 12.4471 11.6331 12.4389 11.6606C12.4307 11.6882 12.4208 11.7151 12.4097 11.7415C12.3985 11.7678 12.3862 11.7942 12.3728 11.8194C12.3593 11.8446 12.3446 11.8692 12.3288 11.8932C12.3132 11.9172 12.2962 11.9402 12.2779 11.9623C12.2597 11.9851 12.2398 12.0062 12.2199 12.0267C12.1994 12.0471 12.1779 12.0665 12.1554 12.0847C12.1332 12.1029 12.1097 12.1199 12.0863 12.1363C12.0623 12.1515 12.0377 12.1667 12.0119 12.1802C11.9868 12.1937 11.961 12.2058 11.9346 12.2165C11.9082 12.2277 11.8812 12.2374 11.8538 12.2458C11.8262 12.254 11.7981 12.261 11.77 12.2669C11.7419 12.2726 11.7136 12.2769 11.6851 12.2798C11.6274 12.2852 11.5694 12.2852 11.5117 12.2798C11.4832 12.2769 11.4548 12.2726 11.4268 12.2669C11.3986 12.261 11.3705 12.254 11.343 12.2458C11.3156 12.2374 11.2886 12.2277 11.2622 12.2165C11.2357 12.2058 11.2099 12.1937 11.1848 12.1802C11.1591 12.1667 11.1345 12.1515 11.1105 12.1363C11.087 12.1199 11.0636 12.1029 11.0413 12.0847C11.0189 12.0665 10.9974 12.0471 10.9769 12.0267C10.957 12.0062 10.9371 11.9851 10.9189 11.9623C10.9006 11.9402 10.8836 11.9172 10.8679 11.8932C10.8523 11.8692 10.8377 11.8446 10.824 11.8194C10.8105 11.7942 10.7982 11.7678 10.7871 11.7415C10.776 11.7151 10.7666 11.6882 10.7578 11.6606C10.749 11.6331 10.7426 11.605 10.7367 11.5769C10.7251 11.5204 10.7194 11.4629 10.7198 11.4052C10.7198 11.3765 10.7215 11.3478 10.7239 11.3191C10.7262 11.2904 10.7315 11.2617 10.7367 11.2336C10.742 11.2055 10.7496 11.178 10.7578 11.1504C10.766 11.1229 10.776 11.096 10.7871 11.0696C10.7982 11.0432 10.8105 11.0169 10.824 10.9917C10.8511 10.941 10.8828 10.8929 10.9189 10.8482C10.9371 10.8259 10.957 10.8043 10.9769 10.7843C10.9974 10.7639 11.0189 10.7446 11.0413 10.7263C11.0636 10.7082 11.087 10.6906 11.1105 10.6748C11.1345 10.6589 11.1593 10.6443 11.1848 10.6309C11.21 10.6174 11.2358 10.6051 11.2622 10.594C11.2885 10.5834 11.3161 10.5735 11.343 10.5653C11.3705 10.5568 11.3985 10.5498 11.4268 10.5442C11.54 10.5212 11.6568 10.5212 11.77 10.5442C11.7983 10.5498 11.8262 10.5568 11.8538 10.5653C11.8807 10.5735 11.9082 10.5834 11.9346 10.594C11.961 10.6045 11.9867 10.6174 12.0119 10.6309C12.0374 10.6443 12.0623 10.6589 12.0863 10.6748C12.1097 10.6906 12.1332 10.7082 12.1554 10.7263C12.1779 10.7446 12.1994 10.7639 12.2199 10.7843C12.2398 10.8043 12.2597 10.8259 12.2779 10.8482C12.3139 10.8929 12.3457 10.941 12.3728 10.9917C12.3862 11.0169 12.3985 11.0432 12.4097 11.0696C12.4208 11.096 12.4302 11.1229 12.4389 11.1504C12.4477 11.178 12.4542 11.2061 12.46 11.2336C12.4659 11.2611 12.47 11.2902 12.4729 11.3189V11.3191ZM13.6479 11.4052C13.6478 11.2899 13.6705 11.1757 13.7146 11.0691C13.7586 10.9625 13.8233 10.8656 13.9048 10.784C13.9863 10.7024 14.0831 10.6377 14.1897 10.5935C14.2962 10.5494 14.4104 10.5266 14.5258 10.5266H14.5274C14.7011 10.5268 14.8709 10.5784 15.0153 10.6751C15.1597 10.7717 15.2722 10.909 15.3386 11.0696C15.4049 11.2301 15.4222 11.4068 15.3882 11.5772C15.3542 11.7475 15.2705 11.904 15.1476 12.0268C15.0247 12.1496 14.8681 12.2332 14.6977 12.267C14.5273 12.3009 14.3506 12.2834 14.1901 12.2169C14.0296 12.1504 13.8925 12.0378 13.796 11.8933C13.6995 11.7488 13.6479 11.579 13.6479 11.4052ZM16.5802 11.4917C16.5774 11.4629 16.576 11.434 16.5761 11.405C16.576 11.3763 16.5774 11.3475 16.5802 11.3189C16.5832 11.2902 16.5878 11.2615 16.5931 11.2334C16.5984 11.2053 16.606 11.1777 16.6142 11.1502C16.6225 11.1227 16.6323 11.0958 16.6435 11.0694C16.654 11.043 16.6669 11.0166 16.6798 10.9915C16.7073 10.9409 16.7393 10.8929 16.7753 10.848C16.7934 10.8257 16.8134 10.804 16.8333 10.7841C16.8538 10.7637 16.8753 10.7443 16.8977 10.7261C16.9198 10.7076 16.9428 10.6904 16.9668 10.6746C16.9908 10.6589 17.0154 10.6443 17.0406 10.6306C17.0658 10.6172 17.0922 10.6049 17.1185 10.5937C17.1449 10.5826 17.1724 10.5732 17.1994 10.565C17.2269 10.5566 17.2549 10.5495 17.2831 10.5439C17.3679 10.5267 17.4548 10.5224 17.5409 10.5311C17.5696 10.5339 17.5981 10.5382 17.6264 10.5439C17.6545 10.5495 17.6822 10.5565 17.7096 10.565C17.7371 10.5732 17.7646 10.5832 17.791 10.5937C17.8173 10.6043 17.8431 10.6172 17.8683 10.6306C17.8938 10.644 17.9187 10.6587 17.9427 10.6746C17.9661 10.6904 17.9896 10.708 18.0118 10.7261C18.0342 10.7442 18.0555 10.7636 18.0757 10.7841C18.0962 10.804 18.1155 10.8257 18.1342 10.848C18.1518 10.8702 18.1694 10.8936 18.1852 10.9177C18.2011 10.9415 18.2157 10.9661 18.2291 10.9915C18.2426 11.0166 18.2549 11.043 18.266 11.0694C18.2771 11.0958 18.2867 11.1227 18.2947 11.1502C18.3035 11.1775 18.3105 11.2052 18.3158 11.2334C18.3219 11.2616 18.3262 11.2902 18.3287 11.3189C18.3317 11.3475 18.3333 11.3762 18.3334 11.405C18.3333 11.434 18.3317 11.4629 18.3287 11.4917C18.3261 11.5202 18.3218 11.5486 18.3158 11.5766C18.3105 11.605 18.3035 11.6329 18.2947 11.6604C18.2866 11.6878 18.277 11.7148 18.266 11.7412C18.2549 11.7676 18.2426 11.7939 18.2291 11.8191C18.2157 11.8443 18.201 11.8689 18.1852 11.8929C18.1694 11.917 18.1518 11.9404 18.1342 11.9621C18.1155 11.9849 18.0962 12.006 18.0757 12.0265C18.0555 12.047 18.0342 12.0664 18.0118 12.0845C17.9896 12.1026 17.9661 12.1196 17.9427 12.1354C17.9187 12.1515 17.8938 12.1664 17.8683 12.18C17.8432 12.1935 17.8174 12.2056 17.791 12.2163C17.7644 12.2275 17.7372 12.2373 17.7096 12.2456C17.6826 12.2538 17.6545 12.2608 17.6264 12.2666C17.5699 12.2781 17.5124 12.2838 17.4548 12.2836C17.4258 12.2837 17.3969 12.2824 17.3681 12.2795C17.3396 12.2767 17.3112 12.2724 17.2831 12.2666C17.255 12.2608 17.2269 12.2538 17.1994 12.2456C17.1719 12.2372 17.145 12.2274 17.1185 12.2163C17.0919 12.2056 17.0659 12.1935 17.0406 12.18C17.0154 12.1665 16.9908 12.1513 16.9668 12.1354C16.9428 12.1198 16.9198 12.1028 16.8977 12.0845C16.8753 12.0662 16.8538 12.0469 16.8333 12.0265C16.8134 12.006 16.7934 11.9849 16.7753 11.9621C16.757 11.94 16.74 11.9169 16.7243 11.8929C16.7085 11.8689 16.6933 11.8443 16.6798 11.8191C16.6663 11.7939 16.654 11.7676 16.6435 11.7412C16.6323 11.7148 16.6226 11.6878 16.6142 11.6604C16.606 11.6329 16.599 11.6047 16.5931 11.5766C16.5873 11.5485 16.5832 11.5198 16.5802 11.4917Z" fill="#1857D8"/>
</svg>