<svg xmlns="http://www.w3.org/2000/svg" width="94" height="48" viewBox="0 0 94 48" fill="none">
  <g clip-path="url(#clip0_14_57)">
    <path d="M34.3501 28.1688V14.8466H43.8075V17.2622H37.2263V20.0104H42.8113V22.3235H37.2263V25.7564H43.9379V28.172H34.3501V28.1688Z" fill="#001149"/>
    <path d="M45.8918 28.1688V14.8466H48.768V25.7549H55.2286V28.1704H45.8918V28.1688Z" fill="#001149"/>
    <path d="M56.1412 28.1688V26.4203L63.3743 17.2893H56.7287V14.8466H67.015V16.6223L59.8189 25.7261H67.1921V28.1688H56.1428H56.1412Z" fill="#001149"/>
    <path d="M68.3831 28.1688V26.4203L75.6162 17.2893H68.9706V14.8466H79.2569V16.6223L72.0608 25.7261H79.434V28.1688H68.3847H68.3831Z" fill="#001149"/>
    <path d="M80.0842 28.1688L85.2234 14.8466H88.8818L94.0016 28.1688H90.9114L87.0389 16.9182L83.1761 28.1688H80.0858H80.0842ZM83.4448 24.5231V22.2372H90.612V24.5231H83.4448Z" fill="#001149"/>
    <path d="M34.3629 38.0708V31.7713H35.3093V34.6011L38.2628 31.7713H39.5037L37.1007 34.0812L39.5874 38.0708H38.4656L36.4006 34.7499L35.3093 35.7961V38.0708H34.3629Z" fill="#001149"/>
    <path d="M45.1901 38.1812C44.5527 38.1812 44.0039 38.05 43.5404 37.7861C43.0768 37.5221 42.7195 37.1462 42.47 36.6599C42.2206 36.1736 42.0966 35.5945 42.0966 34.9226C42.0966 34.2508 42.2222 33.6733 42.47 33.1854C42.7195 32.6991 43.0752 32.3231 43.5404 32.0592C44.0039 31.7953 44.5527 31.6625 45.1869 31.6625C45.821 31.6625 46.3731 31.7953 46.8382 32.0592C47.3018 32.3231 47.6591 32.6991 47.9086 33.1854C48.158 33.6733 48.282 34.2508 48.282 34.9226C48.282 35.5945 48.158 36.1688 47.9086 36.6567C47.6591 37.1446 47.3034 37.5221 46.8382 37.7861C46.3747 38.05 45.8259 38.1812 45.1917 38.1812H45.1901ZM45.1901 37.3989C45.6182 37.3989 45.9884 37.2997 46.2991 37.0998C46.6097 36.8998 46.8495 36.6135 47.0169 36.2424C47.1843 35.8712 47.268 35.4313 47.268 34.9226C47.268 34.4139 47.1843 33.9724 47.0169 33.6013C46.8495 33.2302 46.6097 32.9454 46.2991 32.7455C45.9884 32.5455 45.6182 32.4463 45.1901 32.4463C44.762 32.4463 44.3918 32.5455 44.0795 32.7455C43.7673 32.9454 43.5275 33.2302 43.3601 33.6013C43.1927 33.9724 43.109 34.4123 43.109 34.9226C43.109 35.4329 43.1927 35.8696 43.3601 36.2424C43.5275 36.6135 43.7673 36.8998 44.0795 37.0998C44.3918 37.2997 44.762 37.3989 45.1901 37.3989Z" fill="#001149"/>
    <path d="M50.9038 38.0708V37.4709L54.6057 32.5759H51.208V31.7713H55.7806V32.3839L52.0884 37.2662H55.8032V38.0708H50.9038Z" fill="#001149"/>
    <path d="M59.0496 38.0708V37.3221H59.9026V32.5183H59.0496V31.7697H61.6988V32.5183H60.849V37.3221H61.6988V38.0708H59.0496Z" fill="#001149"/>
    <path d="M66.6239 38.1812C66.2167 38.1812 65.8642 38.1156 65.5681 37.9844C65.2719 37.8532 65.0321 37.6597 64.8502 37.4053C64.6683 37.151 64.5428 36.839 64.472 36.4711L65.4538 36.2136C65.5069 36.6071 65.6196 36.9046 65.795 37.1062C65.9688 37.3077 66.2457 37.4085 66.6239 37.4085C66.9699 37.4085 67.2291 37.3173 67.4013 37.1334C67.5735 36.9494 67.6588 36.6519 67.6588 36.2408V32.5567H65.2961V31.7744H68.6052V36.2408C68.6052 36.5767 68.5569 36.8662 68.4619 37.111C68.367 37.3557 68.2318 37.5573 68.0564 37.7141C67.8825 37.8708 67.6733 37.9892 67.4319 38.066C67.1904 38.1428 66.92 38.1812 66.6239 38.1812Z" fill="#001149"/>
    <path d="M72.2363 38.0708V31.7713H73.5657L76.8089 37.4005L76.598 37.4261V31.7697H77.509V38.0692H76.2552L72.9283 32.4079L73.1488 32.3775V38.0692H72.2379L72.2363 38.0708Z" fill="#001149"/>
    <path d="M81.1432 38.0708V31.7713H85.3988V32.5535H82.0896V34.3467H84.9642V35.113H82.0896V37.287H85.4616V38.0692H81.1432V38.0708Z" fill="#001149"/>
    <path d="M88.7144 38.0708V31.7713H90.0438L93.287 37.4005L93.0761 37.4261V31.7697H93.9871V38.0692H92.7333L89.4065 32.4079L89.627 32.3775V38.0692H88.716L88.7144 38.0708Z" fill="#001149"/>
    <path d="M19.1757 16.096C20.4053 16.0816 21.635 16.0672 22.8646 16.0544C23.605 13.159 24.215 10.8042 24.7767 8.66707C23.5583 8.62868 22.3416 8.59348 21.1232 8.55989C20.4761 11.0362 19.8211 13.5701 19.1757 16.0976V16.096Z" fill="#001149"/>
    <path d="M33.0528 9.95641C33.6419 7.57288 34.0604 5.89002 34.1054 5.72045C26.2333 3.81364 18.3596 1.90682 10.4875 0C8.29057 8.72625 6.09198 17.4509 3.895 26.1772H3.89822C3.9111 26.1772 3.92237 26.1804 3.93524 26.1804L3.17716 29.1878L0 41.7884L0.350872 41.8748L23.4714 47.9984L23.8641 46.5283L23.8448 46.5235L28.8005 26.6939L7.56951 26.9354L4.74321 38.4691L18.6413 45.1462L1.98613 40.7374L5.33551 26.7434L5.47232 26.1708C7.51317 18.0604 9.55564 9.94681 11.5997 1.83483L11.6142 1.83803L32.0823 6.79864C28.9566 6.56828 25.8116 6.34753 22.6474 6.13637C19.3688 5.91722 16.1079 5.71086 12.868 5.5173C11.2215 12.148 9.57656 18.7818 7.93165 25.4125C9.05186 25.4173 10.1737 25.4237 11.2939 25.4285C11.6351 23.9584 11.9763 22.4963 12.3175 21.047L11.1651 21.0054C10.9865 20.999 10.869 20.8246 10.9285 20.6599C10.9285 20.6567 10.9285 20.6551 10.9285 20.6519C10.9656 20.5543 11.0557 20.4903 11.1587 20.4839C11.1346 20.4839 11.1104 20.4839 11.0847 20.4807C10.972 20.4759 10.869 20.5559 10.8304 20.6759C10.8304 20.6791 10.8304 20.6807 10.8304 20.6839C10.7692 20.8726 10.8883 21.0726 11.067 21.079L11.1732 21.0838L10.5761 23.4513C10.5358 23.6065 10.3781 23.7009 10.2236 23.6609L10.1318 23.6385C9.97572 23.6001 9.88237 23.4433 9.92099 23.2881L10.8449 19.6217C10.8835 19.4681 11.0412 19.3737 11.1973 19.4137L11.2891 19.4361C11.4436 19.4745 11.5385 19.6313 11.4983 19.7864L11.3213 20.4855C11.6931 20.4999 12.0665 20.5111 12.4383 20.5255C13.449 16.2288 14.4582 12.0232 15.4545 7.96801L15.4802 7.86243L20.3248 8.21595L20.2878 8.36153C18.9214 13.818 17.5243 19.5657 16.1353 25.4493C16.2995 25.4493 16.4652 25.4493 16.631 25.4493C17.2426 22.9602 17.8076 20.6855 18.3532 18.5067L18.3757 18.4139L18.4723 18.4107C19.7358 18.3611 20.9976 18.3115 22.2611 18.2651L22.4301 18.2587L22.3914 18.4219C21.8555 20.6903 21.3002 23.0578 20.7417 25.4685C20.8608 25.4685 20.9783 25.4685 21.0974 25.4685C22.5444 19.7049 24.009 14.05 25.4527 8.65587L25.4849 8.53589H25.4978L25.5026 8.52149L25.6072 8.52629C27.1427 8.61108 28.6798 8.69746 30.2153 8.78384L30.373 8.79344L30.3682 8.80784H30.4052L30.3553 8.9918C28.9083 14.2835 27.4421 19.8328 25.9935 25.4909C27.0719 25.4973 28.1503 25.5021 29.227 25.5053C29.3976 24.8062 29.5924 24.0128 29.8016 23.157C29.5328 23.157 29.2656 23.157 28.9969 23.1538C29.2431 22.1908 29.4926 21.2262 29.7405 20.2631C29.998 20.2583 30.2571 20.2519 30.5146 20.2471C31.1101 17.8252 31.7556 15.2034 32.3334 12.8598C32.0276 12.8598 31.7234 12.8598 31.4176 12.8598C31.6654 11.8952 31.9149 10.9322 32.1628 9.9676C32.4589 9.96281 32.7567 9.95641 33.0512 9.95161L33.0528 9.95641ZM5.5029 38.2467L8.25677 27.3433C11.1635 27.4281 14.0719 27.5161 16.9819 27.6009L13.4217 41.6877C10.7837 40.5407 8.14249 39.3937 5.5029 38.2467ZM14.2361 42.0396L17.8768 27.6265C20.9027 27.7176 23.9317 27.8056 26.9624 27.8952C25.4704 33.8044 23.9768 39.7153 22.4848 45.6229C19.7374 44.4295 16.9851 43.2345 14.2377 42.0396H14.2361ZM25.0664 8.57588C24.4854 10.777 23.8577 13.2038 23.0884 16.2128L23.0642 16.3071H22.9644C21.6462 16.3231 20.3281 16.3375 19.0099 16.3551H18.8425L18.8843 16.1952C19.5507 13.5797 20.2283 10.9562 20.8994 8.39512L20.9252 8.29754L21.0282 8.30074C22.3351 8.33753 23.6404 8.37592 24.9473 8.41432L25.1083 8.42071L25.0681 8.57588H25.0664Z" fill="#001149"/>
    <path d="M10.5567 22.3747C10.619 22.3747 10.6694 22.3246 10.6694 22.2627C10.6694 22.2009 10.619 22.1508 10.5567 22.1508C10.4945 22.1508 10.4441 22.2009 10.4441 22.2627C10.4441 22.3246 10.4945 22.3747 10.5567 22.3747Z" fill="#001149"/>
    <path d="M25.7167 8.85902C24.2891 14.194 22.8421 19.78 21.4129 25.4749C22.8115 25.4813 24.2086 25.4877 25.6072 25.4941C25.6314 25.4909 25.6555 25.4893 25.6797 25.4861C27.117 19.8696 28.5736 14.3571 30.0109 9.09898C28.58 9.01739 27.1492 8.93901 25.7167 8.85902Z" fill="#001149"/>
    <path d="M13.7983 20.9078C13.7629 21.0182 13.6583 21.0902 13.5408 21.087L12.5767 21.0534C12.2355 22.5027 11.8959 23.9616 11.5546 25.4285C12.9919 25.4349 14.4292 25.4413 15.8681 25.4477C17.2507 19.5961 18.6397 13.8772 19.9997 8.4479L15.6766 8.13277C14.6948 12.1384 13.6969 16.2911 12.699 20.5335C12.9855 20.5431 13.2736 20.5543 13.5601 20.5639C13.7339 20.5703 13.853 20.7398 13.7983 20.903C13.7983 20.9046 13.7983 20.9062 13.7967 20.9078H13.7983Z" fill="#001149"/>
    <path d="M16.895 25.4541C18.0892 25.4589 19.2819 25.4653 20.4761 25.4701C21.025 23.0978 21.5706 20.7671 22.1001 18.5291C20.9268 18.5739 19.7519 18.6187 18.5785 18.6651C18.0442 20.7974 17.4921 23.0226 16.895 25.4525V25.4541Z" fill="#001149"/>
    <path d="M11.1603 20.4839L11.3213 20.4903V20.4855C11.2762 20.4855 11.2311 20.4823 11.1845 20.4807C11.1764 20.4807 11.1684 20.4839 11.1603 20.4839Z" fill="#001149"/>
  </g>
  <defs>
    <clipPath id="clip0_14_57">
      <rect width="94" height="48" fill="white"/>
    </clipPath>
  </defs>
</svg>