<svg xmlns="http://www.w3.org/2000/svg" width="156" height="80" viewBox="0 0 156 80" fill="none">
  <path d="M57.0066 46.9487V24.7451H72.702V28.771H61.7798V33.3514H71.0485V37.2066H61.7798V42.9281H72.9183V46.954H57.0066V46.9487Z" fill="white"/>
  <path d="M76.161 46.9487V24.7451H80.9343V42.9255H91.656V46.9513H76.161V46.9487Z" fill="white"/>
  <path d="M93.1705 46.9487V44.0346L105.174 28.8163H94.1455V24.7451H111.216V27.7045L99.274 42.8775H111.51V46.9487H93.1732H93.1705Z" fill="white"/>
  <path d="M113.487 46.9487V44.0346L125.491 28.8163H114.462V24.7451H131.533V27.7045L119.59 42.8775H131.827V46.9487H113.49H113.487Z" fill="white"/>
  <path d="M132.906 46.9487L141.435 24.7451H147.506L156.003 46.9487H150.874L144.448 28.1978L138.037 46.9487H132.908H132.906ZM138.483 40.8725V37.0626H150.377V40.8725H138.483Z" fill="white"/>
  <path d="M57.0278 63.4494V52.9502H58.5984V57.6666L63.4999 52.9502H65.5593L61.5714 56.8001L65.6982 63.4494H63.8365L60.4094 57.9145L58.5984 59.6582V63.4494H57.0278Z" fill="white"/>
  <path d="M74.9964 63.634C73.9386 63.634 73.0278 63.4154 72.2585 62.9755C71.4892 62.5356 70.8963 61.909 70.4822 61.0985C70.0682 60.288 69.8625 59.3229 69.8625 58.2031C69.8625 57.0833 70.0709 56.1209 70.4822 55.3077C70.8963 54.4972 71.4866 53.8706 72.2585 53.4307C73.0278 52.9908 73.9386 52.7695 74.9911 52.7695C76.0435 52.7695 76.9597 52.9908 77.7316 53.4307C78.5009 53.8706 79.0939 54.4972 79.5079 55.3077C79.9219 56.1209 80.1276 57.0833 80.1276 58.2031C80.1276 59.3229 79.9219 60.28 79.5079 61.0932C79.0939 61.9064 78.5036 62.5356 77.7316 62.9755C76.9623 63.4154 76.0515 63.634 74.9991 63.634H74.9964ZM74.9964 62.3303C75.7069 62.3303 76.3213 62.165 76.8368 61.8317C77.3523 61.4985 77.7503 61.0212 78.0281 60.4027C78.3059 59.7841 78.4448 59.0509 78.4448 58.2031C78.4448 57.3553 78.3059 56.6194 78.0281 56.0009C77.7503 55.3823 77.3523 54.9078 76.8368 54.5745C76.3213 54.2412 75.7069 54.0759 74.9964 54.0759C74.2859 54.0759 73.6715 54.2412 73.1533 54.5745C72.6351 54.9078 72.2372 55.3823 71.9594 56.0009C71.6816 56.6194 71.5427 57.3526 71.5427 58.2031C71.5427 59.0536 71.6816 59.7815 71.9594 60.4027C72.2372 61.0212 72.6351 61.4985 73.1533 61.8317C73.6715 62.165 74.2859 62.3303 74.9964 62.3303Z" fill="white"/>
  <path d="M84.4788 63.4494V62.4496L90.6223 54.2913H84.9836V52.9502H92.5722V53.9713L86.4447 62.1084H92.6096V63.4494H84.4788Z" fill="white"/>
  <path d="M97.9972 63.4511V62.2034H99.4129V54.197H97.9972V52.9492H102.394V54.197H100.983V62.2034H102.394V63.4511H97.9972Z" fill="white"/>
  <path d="M110.567 63.6339C109.892 63.6339 109.307 63.5246 108.815 63.306C108.324 63.0874 107.926 62.7648 107.624 62.3408C107.322 61.9169 107.114 61.397 106.996 60.7838L108.625 60.3546C108.714 61.0104 108.901 61.5063 109.192 61.8423C109.48 62.1782 109.94 62.3462 110.567 62.3462C111.142 62.3462 111.572 62.1942 111.857 61.8876C112.143 61.581 112.285 61.0851 112.285 60.3999V54.2598H108.364V52.9561H113.855V60.3999C113.855 60.9598 113.775 61.4424 113.618 61.8503C113.46 62.2582 113.236 62.5941 112.945 62.8554C112.656 63.1167 112.309 63.314 111.908 63.442C111.508 63.5699 111.059 63.6339 110.567 63.6339Z" fill="white"/>
  <path d="M119.881 63.4511V52.9519H122.088L127.47 62.334L127.12 62.3767V52.9492H128.632V63.4484H126.551L121.03 54.013L121.396 53.9623V63.4484H119.884L119.881 63.4511Z" fill="white"/>
  <path d="M134.663 63.4494V52.9502H141.726V54.2539H136.234V57.2427H141.005V58.5198H136.234V62.143H141.83V63.4468H134.663V63.4494Z" fill="white"/>
  <path d="M147.228 63.4511V52.9519H149.434L154.817 62.334L154.467 62.3767V52.9492H155.979V63.4484H153.898L148.377 54.013L148.743 53.9623V63.4484H147.231L147.228 63.4511Z" fill="white"/>
  <path d="M31.8235 26.8267C33.8642 26.8028 35.9049 26.7788 37.9456 26.7574C39.1743 21.9317 40.1867 18.0072 41.1189 14.4452C39.0969 14.3812 37.0775 14.3226 35.0555 14.2666C33.9817 18.3938 32.8946 22.6169 31.8235 26.8294V26.8267Z" fill="white"/>
  <path d="M54.8536 16.594C55.8312 12.6215 56.5257 9.81671 56.6005 9.5341C43.5362 6.35606 30.4692 3.17803 17.4049 0C13.7588 14.5438 10.1101 29.0849 6.46405 43.6286H6.46939C6.49076 43.6286 6.50946 43.634 6.53083 43.634L5.27274 48.6463L0 69.6474L0.582299 69.7914L38.9526 79.9974L39.6043 77.5472L39.5723 77.5392L47.7966 44.4898L12.5622 44.8924L7.87171 64.1152L30.9366 75.2436L3.29613 67.8958L8.85468 44.5724L9.08172 43.618C12.4687 30.1007 15.8583 16.578 19.2506 3.05806L19.2746 3.06339L53.2429 11.3311C48.0557 10.9471 42.8363 10.5792 37.585 10.2273C32.144 9.86203 26.7323 9.5181 21.3554 9.1955C18.6229 20.2466 15.893 31.3031 13.1632 42.3542C15.0222 42.3622 16.884 42.3729 18.7431 42.3809C19.3093 39.9307 19.8756 37.4938 20.4419 35.0783L18.5294 35.009C18.2329 34.9983 18.0379 34.7077 18.1367 34.4331C18.1367 34.4278 18.1367 34.4251 18.1367 34.4198C18.1982 34.2572 18.3477 34.1505 18.5187 34.1399C18.4786 34.1399 18.4386 34.1398 18.3958 34.1345C18.2089 34.1265 18.0379 34.2598 17.9738 34.4598C17.9738 34.4651 17.9738 34.4678 17.9738 34.4731C17.8723 34.7877 18.07 35.121 18.3664 35.1317L18.5427 35.1396L17.5518 39.0855C17.485 39.3441 17.2232 39.5014 16.9668 39.4348L16.8145 39.3975C16.5554 39.3335 16.4005 39.0722 16.4646 38.8136L17.9978 32.7028C18.0619 32.4469 18.3237 32.2896 18.5828 32.3562L18.7351 32.3935C18.9915 32.4575 19.1491 32.7188 19.0823 32.9774L18.7885 34.1425C19.4055 34.1665 20.0252 34.1852 20.6422 34.2092C22.3197 27.0479 23.9944 20.0387 25.6478 13.28L25.6906 13.1041L33.7306 13.6933L33.6691 13.9359C31.4014 23.0301 29.0829 32.6095 26.7777 42.4155C27.0502 42.4155 27.3253 42.4155 27.6004 42.4155C28.6154 38.267 29.553 34.4758 30.4585 30.8445L30.4959 30.6899L30.6561 30.6845C32.753 30.6019 34.8471 30.5192 36.9439 30.4419L37.2244 30.4313L37.1603 30.7032C36.2708 34.4838 35.3493 38.4297 34.4224 42.4475C34.6201 42.4475 34.815 42.4475 35.0127 42.4475C37.414 32.8414 39.8447 23.4167 42.2407 14.4265L42.2941 14.2265H42.3155L42.3235 14.2025L42.4971 14.2105C45.0453 14.3518 47.5962 14.4958 50.1445 14.6397L50.4062 14.6557L50.3982 14.6797H50.4596L50.3768 14.9863C47.9755 23.8059 45.5422 33.0547 43.1382 42.4849C44.9278 42.4955 46.7174 42.5035 48.5044 42.5088C48.7875 41.3437 49.1107 40.0213 49.458 38.595C49.0119 38.595 48.5685 38.595 48.1224 38.5896C48.5311 36.9846 48.9451 35.3769 49.3565 33.7719C49.7839 33.7639 50.2139 33.7533 50.6413 33.7453C51.6296 29.7087 52.7007 25.3389 53.6596 21.4331C53.1521 21.4331 52.6473 21.4331 52.1398 21.4331C52.5511 19.8254 52.9651 18.2204 53.3765 16.6127C53.868 16.6047 54.3621 16.594 54.8509 16.586L54.8536 16.594ZM9.13247 63.7446L13.7027 45.5722C18.5267 45.7135 23.3534 45.8602 28.1827 46.0015L22.2743 69.4795C17.8963 67.5678 13.5131 65.6562 9.13247 63.7446ZM23.6258 70.066L29.6678 46.0441C34.6895 46.1961 39.7165 46.3427 44.7462 46.4921C42.2701 56.3407 39.7913 66.1921 37.3152 76.0382C32.7556 74.0492 28.1881 72.0576 23.6285 70.066H23.6258ZM41.5996 14.2931C40.6354 17.9617 39.5936 22.0063 38.3168 27.0213L38.2768 27.1786H38.1112C35.9235 27.2052 33.7359 27.2292 31.5483 27.2586H31.2705L31.3399 26.9919C32.4458 22.6328 33.5703 18.2604 34.6842 13.9919L34.7269 13.8292L34.8978 13.8346C37.0668 13.8959 39.233 13.9599 41.402 14.0239L41.6691 14.0345L41.6023 14.2931H41.5996Z" fill="white"/>
  <path d="M17.5197 37.2912C17.623 37.2912 17.7067 37.2077 17.7067 37.1046C17.7067 37.0015 17.623 36.918 17.5197 36.918C17.4165 36.918 17.3328 37.0015 17.3328 37.1046C17.3328 37.2077 17.4165 37.2912 17.5197 37.2912Z" fill="white"/>
  <path d="M42.6788 14.7656C40.3095 23.6572 37.9082 32.9673 35.5363 42.4587C37.8574 42.4694 40.176 42.4801 42.4971 42.4907C42.5372 42.4854 42.5773 42.4827 42.6173 42.4774C45.0026 33.1166 47.42 23.9291 49.8052 15.1655C47.4306 15.0296 45.056 14.8989 42.6788 14.7656Z" fill="white"/>
  <path d="M22.8993 34.8464C22.8405 35.0304 22.6669 35.1504 22.4719 35.145L20.8719 35.089C20.3057 37.5046 19.7421 39.9361 19.1758 42.3809C21.5611 42.3916 23.9464 42.4022 26.3343 42.4129C28.6288 32.6602 30.9339 23.1288 33.191 14.0799L26.0165 13.5547C24.3871 20.2307 22.731 27.152 21.0749 34.2225C21.5504 34.2385 22.0285 34.2572 22.504 34.2732C22.7924 34.2839 22.9901 34.5665 22.8993 34.8384C22.8993 34.8411 22.8993 34.8438 22.8966 34.8464H22.8993Z" fill="white"/>
  <path d="M28.0386 42.4226C30.0205 42.4306 31.9998 42.4412 33.9818 42.4492C34.8926 38.4953 35.7981 34.6108 36.6769 30.8809C34.7297 30.9555 32.7798 31.0302 30.8325 31.1075C29.9457 34.6614 29.0296 38.37 28.0386 42.4199V42.4226Z" fill="white"/>
  <path d="M18.5214 34.1401L18.7885 34.1508V34.1428C18.7137 34.1428 18.6389 34.1374 18.5614 34.1348C18.5481 34.1348 18.5347 34.1401 18.5214 34.1401Z" fill="white"/>
</svg>